<svg width="196" height="218" viewBox="0 0 196 218" fill="none" xmlns="http://www.w3.org/2000/svg">
<path d="M143 189.842C251.5 128.129 172.5 -36.9735 74 7.50741L53.5 16.0294L121 199.165L143 189.842Z" fill="#60E273"/>
<path d="M172.122 96.7534C178.867 150.671 146.003 199.331 98.7044 205.463C81.8497 207.646 65.4778 204.161 51.0299 196.302L12.1164 218L19.8764 168.363C10.022 154.553 3.21338 137.685 0.87758 118.965C-5.86714 65.0481 26.9974 16.3875 74.2956 10.2561C121.587 4.12476 165.385 42.8436 172.122 96.7534Z" fill="#1E962F"/>
<path d="M129.837 139.125C131.074 150.087 125.132 160.004 116.522 161.431C116.171 161.483 115.8 161.534 115.449 161.571L115.377 161.579C79.8254 165.493 47.2803 132.901 42.1977 87.7947L42.1522 87.4122C42.1392 87.2871 42.1262 87.1841 42.1262 87.0517C41.0394 76.1117 47.0915 66.2974 55.7598 65.0467L55.8314 65.0394C57.5755 64.804 59.2935 64.9143 60.94 65.3704L70.5259 97.484L60.3413 105.165L60.2827 105.202L60.4584 106.746C67.7275 125.713 81.6736 137.94 97.9624 142.075C97.9754 142.09 97.9754 142.09 97.9885 142.09C97.9819 142.06 98.9711 140.471 98.9841 140.442L102.303 127.942L127.755 131.591C128.601 133.401 129.239 135.41 129.603 137.543C129.701 138.043 129.779 138.588 129.837 139.125Z" fill="white"/>
</svg>
